<svg width="26" height="26" viewBox="0 0 26 26" fill="none" xmlns="http://www.w3.org/2000/svg">
<path d="M12.9999 8.83435C10.7062 8.83435 8.83431 10.7062 8.83431 13C8.83431 15.2937 10.7062 17.1656 12.9999 17.1656C15.2937 17.1656 17.1656 15.2937 17.1656 13C17.1656 10.7062 15.2937 8.83435 12.9999 8.83435ZM25.4937 13C25.4937 11.275 25.5093 9.5656 25.4124 7.84373C25.3156 5.84373 24.8593 4.06873 23.3968 2.60623C21.9312 1.1406 20.1593 0.687477 18.1593 0.590602C16.4343 0.493727 14.7249 0.509352 13.0031 0.509352C11.2781 0.509352 9.56868 0.493727 7.84681 0.590602C5.84681 0.687477 4.07181 1.14373 2.60931 2.60623C1.14368 4.07185 0.69056 5.84373 0.593685 7.84373C0.49681 9.56873 0.512435 11.2781 0.512435 13C0.512435 14.7219 0.49681 16.4344 0.593685 18.1562C0.69056 20.1562 1.14681 21.9312 2.60931 23.3937C4.07493 24.8594 5.84681 25.3125 7.84681 25.4093C9.57181 25.5062 11.2812 25.4906 13.0031 25.4906C14.7281 25.4906 16.4374 25.5062 18.1593 25.4093C20.1593 25.3125 21.9343 24.8562 23.3968 23.3937C24.8624 21.9281 25.3156 20.1562 25.4124 18.1562C25.5124 16.4344 25.4937 14.725 25.4937 13ZM12.9999 19.4093C9.45306 19.4093 6.59056 16.5469 6.59056 13C6.59056 9.4531 9.45306 6.5906 12.9999 6.5906C16.5468 6.5906 19.4093 9.4531 19.4093 13C19.4093 16.5469 16.5468 19.4093 12.9999 19.4093ZM19.6718 7.82498C18.8437 7.82498 18.1749 7.15623 18.1749 6.3281C18.1749 5.49998 18.8437 4.83123 19.6718 4.83123C20.4999 4.83123 21.1687 5.49998 21.1687 6.3281C21.1689 6.52474 21.1304 6.7195 21.0552 6.90122C20.9801 7.08294 20.8699 7.24806 20.7308 7.3871C20.5918 7.52615 20.4267 7.6364 20.2449 7.71154C20.0632 7.78667 19.8685 7.82522 19.6718 7.82498Z" fill="white"/>
</svg>
