<svg width="88" height="88" viewBox="0 0 88 88" fill="none" xmlns="http://www.w3.org/2000/svg">
<rect x="18.5965" width="71.8517" height="71.8517" rx="20" transform="rotate(15 18.5965 0)" fill="#FF6E6B" fill-opacity="0.5"/>
<rect x="7.90378" y="7.9037" width="71.8517" height="71.8517" rx="20" fill="#FF6E6B"/>
<path d="M48 33C48.5523 33 49 33.4477 49 34V35H54V41H51.981L54.7271 48.5448C54.9033 48.9958 55 49.4866 55 50C55 52.2091 53.2091 54 51 54C49.1362 54 47.5701 52.7252 47.126 51H42.874C42.4299 52.7252 40.8638 54 39 54C37.0555 54 35.4351 52.6125 35.0747 50.7736C34.436 50.4396 34 49.7707 34 49V39C34 38.4477 34.4477 38 35 38H42C42.5523 38 43 38.4477 43 39V44C43 44.5523 43.4477 45 44 45H46C46.5523 45 47 44.5523 47 44V35H44V33H48ZM51 48C49.8954 48 49 48.8954 49 50C49 51.1046 49.8954 52 51 52C52.1046 52 53 51.1046 53 50C53 49.7597 52.9576 49.5292 52.8799 49.3158L52.8635 49.2724C52.5725 48.5276 51.8479 48 51 48ZM39 48C37.8954 48 37 48.8954 37 50C37 51.1046 37.8954 52 39 52C40.1046 52 41 51.1046 41 50C41 48.8954 40.1046 48 39 48ZM41 40H36V42H41V40ZM52 37H49V39H52V37Z" fill="#F8FAFC"/>
</svg>
