<svg width="88" height="88" viewBox="0 0 88 88" fill="none" xmlns="http://www.w3.org/2000/svg">
<rect x="18.5965" width="71.8517" height="71.8517" rx="20" transform="rotate(15 18.5965 0)" fill="#FF6E6B" fill-opacity="0.5"/>
<rect x="7.90381" y="7.9037" width="71.8517" height="71.8517" rx="20" fill="#FF6E6B"/>
<path d="M49 40H52L55 44.056V50H52.965C52.8461 50.8343 52.4302 51.5977 51.7937 52.1499C51.1571 52.7022 50.3427 53.0063 49.5 53.0063C48.6573 53.0063 47.8429 52.7022 47.2063 52.1499C46.5698 51.5977 46.1539 50.8343 46.035 50H40.965C40.8461 50.8343 40.4302 51.5977 39.7937 52.1499C39.1571 52.7022 38.3427 53.0063 37.5 53.0063C36.6573 53.0063 35.8429 52.7022 35.2063 52.1499C34.5698 51.5977 34.1539 50.8343 34.035 50H33V38C33 37.7348 33.1054 37.4804 33.2929 37.2929C33.4804 37.1054 33.7348 37 34 37H48C48.2652 37 48.5196 37.1054 48.7071 37.2929C48.8946 37.4804 49 37.7348 49 38V40ZM49 42V45H53V44.715L50.992 42H49Z" fill="#F8FAFC"/>
</svg>
