<svg width="31" height="26" viewBox="0 0 31 26" fill="none" xmlns="http://www.w3.org/2000/svg">
<path d="M30.524 3.58244C29.4107 4.07578 28.2147 4.40911 26.9574 4.55978C28.2547 3.7835 29.2253 2.56173 29.688 1.12244C28.4692 1.84643 27.1352 2.35604 25.744 2.62911C24.8085 1.63026 23.5694 0.968212 22.2191 0.745742C20.8688 0.523273 19.4828 0.752832 18.2763 1.39878C17.0699 2.04473 16.1104 3.07093 15.5469 4.31805C14.9834 5.56517 14.8474 6.96344 15.16 8.29578C12.6903 8.17177 10.2742 7.52984 8.06859 6.41165C5.86299 5.29346 3.91715 3.72399 2.35736 1.80511C1.82403 2.72511 1.51736 3.79178 1.51736 4.92778C1.51676 5.95044 1.7686 6.95743 2.25053 7.85942C2.73246 8.76141 3.42957 9.53049 4.28003 10.0984C3.29373 10.0671 2.32919 9.80056 1.46669 9.32111V9.40111C1.46659 10.8354 1.96274 12.2256 2.87094 13.3358C3.77914 14.4459 5.04345 15.2077 6.44936 15.4918C5.5344 15.7394 4.57514 15.7759 3.64403 15.5984C4.04069 16.8326 4.81335 17.9118 5.85385 18.685C6.89434 19.4582 8.15058 19.8867 9.44669 19.9104C7.24647 21.6377 4.52921 22.5746 1.73203 22.5704C1.23653 22.5706 0.741461 22.5416 0.249359 22.4838C3.08866 24.3093 6.39381 25.2782 9.76936 25.2744C21.196 25.2744 27.4427 15.8104 27.4427 7.60244C27.4427 7.33578 27.436 7.06644 27.424 6.79978C28.6391 5.92108 29.6879 4.83297 30.5214 3.58644L30.524 3.58244Z" fill="white"/>
</svg>
